<svg width="24" height="24" viewBox="0 0 24 24" fill="none" xmlns="http://www.w3.org/2000/svg">
<path d="M0 24H24V-9.83477e-07H0V24Z" fill="#F50745"/>
<path d="M7.84615 8.5625H16.1538M7.84615 11.3125H12M3 12.6967C3 14.1633 4.03662 15.4412 5.49877 15.6548C6.54092 15.8069 7.59415 15.9233 8.65846 16.0022C8.98154 16.026 9.27692 16.1947 9.45692 16.4614L12 20.25L14.5431 16.4614C14.6323 16.3297 14.7506 16.2198 14.8889 16.1403C15.0273 16.0607 15.1821 16.0135 15.3415 16.0022C16.3986 15.9238 17.4525 15.8079 18.5012 15.6548C19.9634 15.4412 21 14.1643 21 12.6958V7.17925C21 5.71075 19.9634 4.43384 18.5012 4.22025C16.3486 3.90649 14.1757 3.74932 12 3.75C9.792 3.75 7.62092 3.91042 5.49877 4.22025C4.03662 4.43384 3 5.71167 3 7.17925V12.6958V12.6967Z" stroke="white" stroke-width="2" stroke-linecap="round" stroke-linejoin="round"/>
</svg>
